<svg width="142" height="25" viewBox="0 0 142 25" fill="none" xmlns="http://www.w3.org/2000/svg">
<g clip-path="url(#clip0)">
<path d="M74.1171 19.8221C74.2679 19.82 74.4175 19.8476 74.5568 19.9032C74.6962 19.9587 74.8223 20.0412 74.9275 20.1454C75.0342 20.2472 75.1189 20.3683 75.1767 20.5019C75.2346 20.6355 75.2643 20.7788 75.2643 20.9236C75.2643 21.0684 75.2346 21.2117 75.1767 21.3453C75.1189 21.4788 75.0342 21.6 74.9275 21.7018C74.8223 21.806 74.6962 21.8884 74.5568 21.944C74.4175 21.9996 74.2679 22.0272 74.1171 22.0251C70.2928 22.0251 68.3806 20.1896 68.3806 16.5187V8.8122H67.2304C67.0777 8.81651 66.9258 8.79121 66.7834 8.73782C66.6411 8.68442 66.5113 8.60402 66.4018 8.50135C66.2922 8.39869 66.2052 8.27586 66.1457 8.14014C66.0862 8.00442 66.0556 7.85856 66.0556 7.71121C66.0556 7.56386 66.0862 7.418 66.1457 7.28228C66.2052 7.14656 66.2922 7.02373 66.4018 6.92107C66.5113 6.8184 66.6411 6.738 66.7834 6.6846C66.9258 6.63121 67.0777 6.60591 67.2304 6.61022H68.3777V1.10103C68.3756 0.955958 68.4044 0.812018 68.4624 0.678151C68.5203 0.544284 68.6062 0.42335 68.7147 0.322862C68.9298 0.115798 69.2212 -0.000488281 69.525 -0.000488281C69.8288 -0.000488281 70.1202 0.115798 70.3353 0.322862C70.4436 0.423487 70.5293 0.544447 70.5873 0.678282C70.6452 0.812116 70.6742 0.955989 70.6723 1.10103V6.6074H72.9815C73.1323 6.60538 73.2818 6.633 73.4212 6.68859C73.5605 6.74417 73.6866 6.82655 73.7918 6.9307C73.9514 7.08496 74.06 7.28144 74.1038 7.49528C74.1476 7.70911 74.1247 7.93067 74.0379 8.13192C73.9511 8.33318 73.8045 8.50506 73.6164 8.62582C73.4284 8.74659 73.2074 8.8108 72.9815 8.81032H70.6723V16.5168C70.6723 18.7197 71.8206 19.8215 74.1171 19.8221ZM87.6287 10.424C86.5484 9.39213 85.0898 8.81332 83.5697 8.81332C82.0497 8.81332 80.5911 9.39213 79.5108 10.424C78.9694 10.9277 78.541 11.5334 78.2524 12.2035C77.9637 12.8736 77.8209 13.5939 77.8327 14.3195C77.8209 15.0453 77.9637 15.7656 78.2524 16.4359C78.5411 17.1062 78.9694 17.7121 79.5108 18.216C80.5914 19.2474 82.0499 19.8259 83.5697 19.8259C85.0896 19.8259 86.5481 19.2474 87.6287 18.216C88.1703 17.7122 88.5987 17.1064 88.8874 16.4361C89.1761 15.7657 89.3188 15.0453 89.3068 14.3195C89.319 13.593 89.176 12.8719 88.8868 12.201C88.5976 11.5302 88.1683 10.924 87.6257 10.4202L87.6287 10.424ZM91.2644 21.7018C91.0493 21.9088 90.7579 22.0251 90.4541 22.0251C90.1502 22.0251 89.8588 21.9088 89.6437 21.7018C89.5353 21.6013 89.4494 21.4803 89.3914 21.3465C89.3335 21.2126 89.3047 21.0687 89.3068 20.9236V19.7122C87.7011 21.2535 85.7889 22.0244 83.5702 22.0251C81.3516 22.0257 79.4582 21.2738 77.8902 19.7695C76.3221 18.2658 75.5381 16.4488 75.5381 14.3186C75.5381 12.1883 76.3221 10.3714 77.8902 8.86765C79.4582 7.36395 81.3516 6.6121 83.5702 6.6121C85.7889 6.6121 87.6819 7.36395 89.2493 8.86765C90.8173 10.3714 91.6014 12.1883 91.6014 14.3186V20.9264C91.6023 21.0714 91.5724 21.2151 91.5134 21.3484C91.4544 21.4818 91.3677 21.6021 91.2585 21.7018H91.2644ZM138.03 10.424C136.95 9.39196 135.492 8.81302 133.972 8.81302C132.452 8.81302 130.993 9.39196 129.913 10.424C129.103 11.1772 128.552 12.1531 128.336 13.219H139.605C139.39 12.1517 138.839 11.1745 138.027 10.4202L138.03 10.424ZM141.666 15.0977C141.561 15.2018 141.435 15.2842 141.295 15.3398C141.156 15.3954 141.006 15.423 140.856 15.421H128.333C128.549 16.4868 129.1 17.4626 129.91 18.216C131.029 19.2893 132.381 19.8259 133.969 19.8259C135.403 19.8259 136.636 19.3898 137.67 18.5177C137.875 18.3641 138.127 18.282 138.387 18.2846C138.537 18.2826 138.687 18.3102 138.826 18.3658C138.966 18.4214 139.092 18.5037 139.197 18.6079C139.305 18.7082 139.391 18.829 139.449 18.9627C139.507 19.0964 139.536 19.2402 139.534 19.3851C139.536 19.5305 139.508 19.6748 139.452 19.8095C139.395 19.9443 139.311 20.0668 139.205 20.1699C137.722 21.4092 135.978 22.0288 133.97 22.0288C131.751 22.0288 129.858 21.277 128.29 19.7733C126.722 18.2696 125.938 16.4526 125.938 14.3223C125.938 12.1921 126.722 10.3751 128.29 8.87141C129.858 7.36771 131.751 6.61586 133.97 6.61586C136.187 6.61586 138.08 7.36771 139.649 8.87141C141.218 10.3751 142.002 12.1921 142.001 14.3223C142.002 14.4664 141.973 14.6092 141.915 14.7419C141.857 14.8746 141.771 14.9944 141.663 15.0939L141.666 15.0977ZM104.812 10.424C103.732 9.39213 102.273 8.81332 100.753 8.81332C99.233 8.81332 97.7744 9.39213 96.6941 10.424C96.1525 10.9276 95.7241 11.5333 95.4354 12.2034C95.1467 12.8736 95.004 13.5939 95.016 14.3195C95.004 15.0453 95.1467 15.7657 95.4354 16.4361C95.7241 17.1064 96.1525 17.7122 96.6941 18.216C97.7747 19.2474 99.2332 19.8259 100.753 19.8259C102.273 19.8259 103.731 19.2474 104.812 18.216C105.353 17.712 105.781 17.1061 106.07 16.4358C106.358 15.7656 106.501 15.0452 106.489 14.3195C106.501 13.5931 106.358 12.8721 106.069 12.2012C105.78 11.5304 105.351 10.9242 104.809 10.4202L104.812 10.424ZM106.433 19.7704C105.224 20.9314 103.821 21.6441 102.226 21.9085V23.7957C102.217 24.1122 102.08 24.4129 101.845 24.6337C101.61 24.8544 101.295 24.978 100.966 24.978C100.638 24.978 100.323 24.8544 100.088 24.6337C99.8524 24.4129 99.7157 24.1122 99.7065 23.7957V21.964C97.934 21.761 96.3896 21.0285 95.0735 19.7667C93.5054 18.263 92.7214 16.446 92.7214 14.3158C92.7214 12.1855 93.5054 10.3685 95.0735 8.86483C96.6415 7.36113 98.5346 6.60928 100.753 6.60928C102.971 6.60928 104.864 7.36113 106.433 8.86483C108.001 10.3685 108.785 12.1855 108.785 14.3158C108.785 16.446 108 18.263 106.43 19.7667L106.433 19.7704ZM124.483 21.7055C124.268 21.9125 123.977 22.0288 123.673 22.0288C123.369 22.0288 123.078 21.9125 122.863 21.7055C122.754 21.6052 122.668 21.4843 122.61 21.3504C122.552 21.2165 122.523 21.0725 122.525 20.9273V20.0326C121.091 21.3634 119.371 22.0288 117.363 22.0288C115.307 22.0288 113.551 21.329 112.093 19.9293C110.635 18.5296 109.906 16.8432 109.906 14.8702V7.70604C109.904 7.56111 109.932 7.41732 109.99 7.28361C110.048 7.1499 110.134 7.02913 110.243 6.92882C110.458 6.72181 110.749 6.60555 111.052 6.60555C111.356 6.60555 111.647 6.72181 111.862 6.92882C111.971 7.0291 112.056 7.14989 112.114 7.28362C112.172 7.41735 112.201 7.56116 112.198 7.70604V14.8646C112.188 15.5174 112.317 16.1653 112.577 16.768C112.838 17.3708 113.223 17.9154 113.711 18.3682C114.681 19.2993 115.995 19.822 117.363 19.822C118.732 19.822 120.045 19.2993 121.015 18.3682C121.502 17.9153 121.887 17.3707 122.146 16.7684C122.405 16.166 122.533 15.5186 122.522 14.8665V7.70604C122.52 7.56102 122.549 7.41713 122.607 7.28339C122.665 7.14965 122.751 7.02894 122.86 6.92882C123.02 6.77508 123.224 6.67042 123.446 6.62796C123.668 6.58549 123.897 6.60711 124.106 6.6901C124.315 6.77308 124.494 6.91375 124.621 7.09448C124.747 7.2752 124.816 7.48794 124.818 7.70604V20.9236C124.82 21.0687 124.791 21.2127 124.733 21.3465C124.674 21.4804 124.588 21.6013 124.48 21.7018L124.483 21.7055ZM103.482 15.5159H102.028V16.9106C102.019 17.2269 101.883 17.5273 101.648 17.7479C101.413 17.9685 101.098 18.092 100.77 18.092C100.442 18.092 100.127 17.9685 99.8916 17.7479C99.6565 17.5273 99.5199 17.2269 99.5108 16.9106V14.3073C99.5118 13.9861 99.6449 13.6784 99.8808 13.4518C100.117 13.2252 100.436 13.0982 100.769 13.0987H103.482C103.814 13.0987 104.132 13.226 104.367 13.4527C104.602 13.6793 104.734 13.9868 104.734 14.3073C104.734 14.6278 104.602 14.9352 104.367 15.1619C104.132 15.3886 103.814 15.5159 103.482 15.5159Z" fill="#64008C"/>
<path d="M61.2952 10.4202C60.2155 9.38832 58.7573 8.80943 57.2377 8.80943C55.7181 8.80943 54.2599 9.38832 53.1803 10.4202C52.3694 11.1734 51.8185 12.1493 51.6025 13.2152H62.872C62.6559 12.1495 62.1054 11.1738 61.2952 10.4202ZM64.929 15.0939C64.8238 15.1982 64.6977 15.2806 64.5583 15.3362C64.419 15.3918 64.2694 15.4193 64.1186 15.4172H51.6025C51.8179 16.4827 52.3677 17.4585 53.1774 18.2122C53.7045 18.7329 54.3363 19.1443 55.034 19.4211C55.7316 19.6979 56.4805 19.8344 57.2348 19.8221C58.6684 19.8221 59.9021 19.3861 60.9358 18.5139C61.1406 18.3604 61.3933 18.2782 61.6526 18.2808C61.8032 18.2788 61.9527 18.3064 62.0918 18.362C62.231 18.4176 62.3569 18.5 62.462 18.6041C62.5704 18.7044 62.6562 18.8252 62.7142 18.9589C62.7722 19.0926 62.801 19.2364 62.7989 19.3814C62.8008 19.5267 62.7726 19.6709 62.7161 19.8057C62.6596 19.9404 62.5759 20.0629 62.4697 20.1661C60.9887 21.4054 59.2444 22.0251 57.2367 22.0251C55.0188 22.0251 53.1264 21.2732 51.5596 19.7695C49.9929 18.2658 49.2089 16.4488 49.2076 14.3186C49.2076 12.1883 49.9916 10.3714 51.5596 8.86765C53.1277 7.36395 55.0201 6.6121 57.2367 6.6121C59.4534 6.6121 61.3458 7.36395 62.9139 8.86765C64.4819 10.3714 65.2656 12.1883 65.265 14.3186C65.267 14.4631 65.2382 14.6065 65.1804 14.7399C65.1226 14.8733 65.037 14.9938 64.929 15.0939ZM47.7525 21.7018C47.5924 21.8561 47.3885 21.9613 47.1666 22.0041C46.9447 22.0469 46.7146 22.0253 46.5053 21.942C46.2961 21.8588 46.1171 21.7177 45.9908 21.5365C45.8645 21.3552 45.7967 21.142 45.7958 20.9236V20.0289C44.3622 21.3597 42.6416 22.0251 40.6339 22.0251C38.5789 22.0251 36.8226 21.3252 35.3649 19.9255C33.9072 18.5258 33.1787 16.8395 33.1794 14.8665V7.70604C33.1773 7.5612 33.2061 7.4175 33.2639 7.28382C33.3217 7.15013 33.4073 7.02931 33.5154 6.92882C33.7305 6.72175 34.0219 6.60546 34.3257 6.60546C34.6295 6.60546 34.9209 6.72175 35.136 6.92882C35.2443 7.02926 35.33 7.15006 35.388 7.28374C35.4459 7.41742 35.4749 7.56114 35.473 7.70604V14.8646C35.4626 15.5175 35.5915 16.1654 35.8517 16.7682C36.1119 17.3709 36.4979 17.9156 36.9855 18.3682C37.7064 19.0632 38.6242 19.5368 39.6235 19.7292C40.6228 19.9217 41.6587 19.8245 42.6008 19.4499C43.5429 19.0752 44.349 18.4399 44.9176 17.6239C45.4862 16.808 45.7917 15.8479 45.7958 14.8646V7.70604C45.7938 7.5612 45.8225 7.4175 45.8803 7.28382C45.9381 7.15013 46.0237 7.02931 46.1318 6.92882C46.3469 6.72175 46.6383 6.60546 46.9422 6.60546C47.246 6.60546 47.5374 6.72175 47.7525 6.92882C47.8609 7.02913 47.9468 7.1499 48.0048 7.28361C48.0627 7.41732 48.0916 7.56111 48.0895 7.70604V20.9236C48.0916 21.0687 48.0628 21.2126 48.0048 21.3465C47.9468 21.4803 47.8609 21.6013 47.7525 21.7018ZM24.3671 16.0704H21.6547C21.3225 16.0704 21.0039 15.9431 20.769 15.7164C20.5342 15.4897 20.4022 15.1823 20.4022 14.8618C20.4022 14.5412 20.5342 14.2338 20.769 14.0072C21.0039 13.7805 21.3225 13.6532 21.6547 13.6532H23.1078V12.2623C23.1169 11.9459 23.2536 11.6455 23.4886 11.4249C23.7237 11.2043 24.0387 11.0809 24.3666 11.0809C24.6946 11.0809 25.0096 11.2043 25.2446 11.4249C25.4797 11.6455 25.6163 11.9459 25.6255 12.2623V14.8655C25.6234 15.1861 25.4899 15.4928 25.254 15.7186C25.0182 15.9444 24.6993 16.0709 24.3671 16.0704ZM13.3986 21.7018C13.2383 21.8557 13.0345 21.9605 12.8127 22.003C12.5909 22.0455 12.3611 22.0238 12.152 21.9407C11.943 21.8575 11.764 21.7166 11.6377 21.5357C11.5114 21.3547 11.4432 21.1418 11.4419 20.9236V7.70604C11.4398 7.56111 11.4687 7.41732 11.5266 7.28361C11.5846 7.1499 11.6705 7.02913 11.7789 6.92882C11.9938 6.72181 12.2851 6.60555 12.5887 6.60555C12.8924 6.60555 13.1837 6.72181 13.3986 6.92882C13.5065 7.02937 13.5918 7.15025 13.6493 7.28395C13.7067 7.41765 13.7351 7.56132 13.7326 7.70604V20.9236C13.7351 21.0685 13.7068 21.2123 13.6493 21.3461C13.5918 21.48 13.5065 21.601 13.3986 21.7018ZM8.02922 19.8221C8.1798 19.8202 8.32922 19.8478 8.46836 19.9034C8.60751 19.959 8.73347 20.0413 8.83857 20.1454C8.94528 20.2472 9.03001 20.3683 9.08784 20.5019C9.14566 20.6355 9.17544 20.7788 9.17544 20.9236C9.17544 21.0684 9.14566 21.2117 9.08784 21.3453C9.03001 21.4788 8.94528 21.6 8.83857 21.7018C8.73347 21.8058 8.60751 21.8882 8.46836 21.9438C8.32922 21.9993 8.1798 22.027 8.02922 22.0251C4.20552 22.0251 2.29367 20.1896 2.29367 16.5187V8.8122H1.14733C0.996354 8.81408 0.846574 8.78611 0.707216 8.73003C0.567858 8.67394 0.441871 8.59092 0.337013 8.48609C0.230326 8.38442 0.145619 8.26333 0.0878053 8.12983C0.0299915 7.99633 0.000221252 7.85308 0.000221252 7.70839C0.000221252 7.5637 0.0299915 7.42046 0.0878053 7.28696C0.145619 7.15346 0.230326 7.03236 0.337013 6.9307C0.44226 6.82655 0.568385 6.74417 0.707698 6.68859C0.847012 6.633 0.996596 6.60538 1.14733 6.6074H2.29367V1.10103C2.29166 0.956057 2.32044 0.812226 2.37823 0.678394C2.43601 0.544563 2.52159 0.423568 2.62968 0.322862C2.84476 0.115798 3.13618 -0.000488281 3.44 -0.000488281C3.74382 -0.000488281 4.03523 0.115798 4.25032 0.322862C4.35858 0.423487 4.44434 0.544447 4.5023 0.678282C4.56025 0.812116 4.58918 0.955989 4.5873 1.10103V6.6074H6.89555C7.04615 6.60534 7.1956 6.63296 7.33476 6.68854C7.47392 6.74413 7.59987 6.82653 7.7049 6.9307C7.86442 7.0849 7.97297 7.2813 8.0168 7.49504C8.06063 7.70879 8.03779 7.93028 7.95115 8.13149C7.86451 8.3327 7.71797 8.5046 7.53007 8.62543C7.34217 8.74627 7.12135 8.81061 6.89555 8.81032H4.58828V16.5168C4.58828 18.7197 5.73526 19.8215 8.02922 19.8221ZM13.6002 4.27384C13.4677 4.40251 13.3102 4.50462 13.1367 4.5743C12.9632 4.64398 12.7772 4.67986 12.5892 4.67986C12.4013 4.67986 12.2152 4.64398 12.0417 4.5743C11.8682 4.50462 11.7107 4.40251 11.5783 4.27384C11.4442 4.14752 11.3376 3.9966 11.2649 3.82995C11.1921 3.66331 11.1547 3.48431 11.1547 3.30348C11.1547 3.12266 11.1921 2.94366 11.2649 2.77701C11.3376 2.61037 11.4442 2.45945 11.5783 2.33312C11.7783 2.14037 12.033 2.009 12.3103 1.95554C12.5875 1.90208 12.875 1.92892 13.1364 2.03268C13.3979 2.13644 13.6218 2.31249 13.7798 2.53869C13.9379 2.76489 14.0231 3.03114 14.0248 3.30395C14.0266 3.48506 13.9899 3.6646 13.9168 3.83144C13.8438 3.99828 13.736 4.14886 13.6002 4.27384ZM28.0886 10.4202C27.0089 9.38832 25.5507 8.80943 24.0311 8.80943C22.5115 8.80943 21.0533 9.38832 19.9737 10.4202C19.4324 10.924 19.0042 11.5297 18.7156 12.1998C18.4271 12.87 18.2845 13.5902 18.2965 14.3158C18.2972 15.041 18.4461 15.759 18.7349 16.4285C19.0237 17.0981 19.4465 17.7061 19.9793 18.2176C20.512 18.7292 21.1442 19.1342 21.8395 19.4096C22.5348 19.6849 23.2796 19.8251 24.0311 19.8221C24.7827 19.8251 25.5275 19.6849 26.2227 19.4096C26.918 19.1342 27.5502 18.7292 28.0829 18.2176C28.6157 17.7061 29.0386 17.0981 29.3273 16.4285C29.6161 15.759 29.7651 15.041 29.7657 14.3158C29.7778 13.5902 29.6351 12.87 29.3466 12.1998C29.0581 11.5297 28.6299 10.924 28.0886 10.4202ZM29.7053 19.7667C28.5281 20.8982 27.1672 21.6043 25.6225 21.885V23.7919C25.6134 24.1082 25.4768 24.4086 25.2417 24.6292C25.0066 24.8499 24.6916 24.9733 24.3637 24.9733C24.0358 24.9733 23.7208 24.8499 23.4857 24.6292C23.2506 24.4086 23.114 24.1082 23.1049 23.7919V21.9781C21.281 21.7945 19.6964 21.0574 18.3511 19.7667C16.783 18.263 15.999 16.446 15.999 14.3158C15.999 12.1855 16.783 10.3685 18.3511 8.86483C19.9178 7.36113 21.8102 6.60928 24.0282 6.60928C26.2462 6.60928 28.1386 7.36113 29.7053 8.86483C31.2734 10.3685 32.0571 12.1855 32.0564 14.3158C32.0558 16.446 31.2721 18.263 29.7053 19.7667Z" fill="#64008C"/>
</g>
<defs>
<clipPath id="clip0">
<rect width="142" height="25" fill="white"/>
</clipPath>
</defs>
</svg>
